<mxfile host="app.diagrams.net" modified="2024-05-06T05:03:39.866Z" agent="Mozilla/5.0 (Windows NT 10.0; Win64; x64) AppleWebKit/537.36 (KHTML, like Gecko) Chrome/124.0.0.0 Safari/537.36" etag="C3vhhb3HLERmwMKR0x9s" version="24.3.1" type="github">
  <diagram name="PÃ¡gina-1" id="l7-UxxubtHsJpn8i_Fkr">
    <mxGraphModel dx="1953" dy="1055" grid="1" gridSize="10" guides="1" tooltips="1" connect="1" arrows="1" fold="1" page="1" pageScale="1" pageWidth="827" pageHeight="1169" math="0" shadow="0">
      <root>
        <mxCell id="0" />
        <mxCell id="1" parent="0" />
        <mxCell id="Xpfcy3nXjKeu7boo3VgT-59" value="" style="rounded=0;whiteSpace=wrap;html=1;fillColor=#88f18a;strokeColor=#82b366;" vertex="1" parent="1">
          <mxGeometry x="1355" y="519" width="600" height="130" as="geometry" />
        </mxCell>
        <mxCell id="Xpfcy3nXjKeu7boo3VgT-58" value="" style="rounded=0;whiteSpace=wrap;html=1;fillColor=#d5e8d4;strokeColor=#82b366;" vertex="1" parent="1">
          <mxGeometry x="1355" y="201.25" width="600" height="130" as="geometry" />
        </mxCell>
        <mxCell id="Xpfcy3nXjKeu7boo3VgT-57" value="" style="rounded=0;whiteSpace=wrap;html=1;fillColor=#d5e8d4;strokeColor=#82b366;" vertex="1" parent="1">
          <mxGeometry x="520" y="201.25" width="600" height="130" as="geometry" />
        </mxCell>
        <mxCell id="Xpfcy3nXjKeu7boo3VgT-1" value="" style="shape=actor;whiteSpace=wrap;html=1;" vertex="1" parent="1">
          <mxGeometry x="80" y="260" width="40" height="50" as="geometry" />
        </mxCell>
        <mxCell id="Xpfcy3nXjKeu7boo3VgT-5" value="&lt;b&gt;DEV&lt;/b&gt;" style="text;html=1;align=center;verticalAlign=middle;whiteSpace=wrap;rounded=0;" vertex="1" parent="1">
          <mxGeometry x="70" y="312.5" width="60" height="30" as="geometry" />
        </mxCell>
        <mxCell id="Xpfcy3nXjKeu7boo3VgT-6" value="" style="verticalLabelPosition=bottom;html=1;verticalAlign=top;align=center;strokeColor=none;fillColor=#00BEF2;shape=mxgraph.azure.github_code;pointerEvents=1;fontColor=#000000;" vertex="1" parent="1">
          <mxGeometry x="220" y="262.5" width="50" height="50" as="geometry" />
        </mxCell>
        <mxCell id="Xpfcy3nXjKeu7boo3VgT-7" value="" style="endArrow=classic;html=1;rounded=0;fontStyle=1;fontSize=23;strokeWidth=3;" edge="1" parent="1">
          <mxGeometry width="50" height="50" relative="1" as="geometry">
            <mxPoint x="130" y="284.5" as="sourcePoint" />
            <mxPoint x="210" y="284.5" as="targetPoint" />
          </mxGeometry>
        </mxCell>
        <mxCell id="Xpfcy3nXjKeu7boo3VgT-9" value="&lt;b&gt;commit&lt;/b&gt;" style="text;html=1;align=center;verticalAlign=middle;whiteSpace=wrap;rounded=0;" vertex="1" parent="1">
          <mxGeometry x="140" y="252.5" width="60" height="27.5" as="geometry" />
        </mxCell>
        <mxCell id="Xpfcy3nXjKeu7boo3VgT-10" value="" style="rounded=1;whiteSpace=wrap;html=1;" vertex="1" parent="1">
          <mxGeometry x="530" y="258" width="110" height="50" as="geometry" />
        </mxCell>
        <mxCell id="Xpfcy3nXjKeu7boo3VgT-11" value="&lt;b&gt;Install&lt;/b&gt;" style="text;html=1;align=center;verticalAlign=middle;whiteSpace=wrap;rounded=0;" vertex="1" parent="1">
          <mxGeometry x="555" y="270.5" width="60" height="30" as="geometry" />
        </mxCell>
        <mxCell id="Xpfcy3nXjKeu7boo3VgT-13" value="GitHub" style="text;html=1;align=center;verticalAlign=middle;whiteSpace=wrap;rounded=0;" vertex="1" parent="1">
          <mxGeometry x="215" y="320" width="60" height="30" as="geometry" />
        </mxCell>
        <mxCell id="Xpfcy3nXjKeu7boo3VgT-15" value="" style="sketch=0;outlineConnect=0;fontColor=#232F3E;gradientColor=none;fillColor=#232F3D;strokeColor=none;dashed=0;verticalLabelPosition=bottom;verticalAlign=top;align=center;html=1;fontSize=12;fontStyle=0;aspect=fixed;pointerEvents=1;shape=mxgraph.aws4.authenticated_user;" vertex="1" parent="1">
          <mxGeometry x="370" y="256" width="54" height="54" as="geometry" />
        </mxCell>
        <mxCell id="Xpfcy3nXjKeu7boo3VgT-17" value="" style="endArrow=classic;html=1;rounded=0;fontStyle=1;fontSize=23;strokeWidth=3;" edge="1" parent="1">
          <mxGeometry width="50" height="50" relative="1" as="geometry">
            <mxPoint x="280" y="282.5" as="sourcePoint" />
            <mxPoint x="360" y="282.5" as="targetPoint" />
          </mxGeometry>
        </mxCell>
        <mxCell id="Xpfcy3nXjKeu7boo3VgT-18" value="" style="endArrow=classic;html=1;rounded=0;fontStyle=1;fontSize=23;strokeWidth=3;" edge="1" parent="1">
          <mxGeometry width="50" height="50" relative="1" as="geometry">
            <mxPoint x="430" y="280" as="sourcePoint" />
            <mxPoint x="510" y="280" as="targetPoint" />
          </mxGeometry>
        </mxCell>
        <mxCell id="Xpfcy3nXjKeu7boo3VgT-19" value="" style="rounded=1;whiteSpace=wrap;html=1;" vertex="1" parent="1">
          <mxGeometry x="760" y="258" width="110" height="50" as="geometry" />
        </mxCell>
        <mxCell id="Xpfcy3nXjKeu7boo3VgT-20" value="&lt;b&gt;Build&lt;/b&gt;" style="text;html=1;align=center;verticalAlign=middle;whiteSpace=wrap;rounded=0;" vertex="1" parent="1">
          <mxGeometry x="785" y="270.5" width="60" height="30" as="geometry" />
        </mxCell>
        <mxCell id="Xpfcy3nXjKeu7boo3VgT-21" value="" style="endArrow=classic;html=1;rounded=0;fontStyle=1;fontSize=23;strokeWidth=3;" edge="1" parent="1">
          <mxGeometry width="50" height="50" relative="1" as="geometry">
            <mxPoint x="660" y="280" as="sourcePoint" />
            <mxPoint x="740" y="280" as="targetPoint" />
          </mxGeometry>
        </mxCell>
        <mxCell id="Xpfcy3nXjKeu7boo3VgT-22" value="" style="rounded=1;whiteSpace=wrap;html=1;" vertex="1" parent="1">
          <mxGeometry x="1000" y="258" width="110" height="50" as="geometry" />
        </mxCell>
        <mxCell id="Xpfcy3nXjKeu7boo3VgT-23" value="" style="endArrow=classic;html=1;rounded=0;fontStyle=1;fontSize=23;strokeWidth=3;" edge="1" parent="1">
          <mxGeometry width="50" height="50" relative="1" as="geometry">
            <mxPoint x="900" y="280" as="sourcePoint" />
            <mxPoint x="980" y="280" as="targetPoint" />
          </mxGeometry>
        </mxCell>
        <mxCell id="Xpfcy3nXjKeu7boo3VgT-24" value="&lt;b&gt;Check_files&lt;/b&gt;" style="text;html=1;align=center;verticalAlign=middle;whiteSpace=wrap;rounded=0;" vertex="1" parent="1">
          <mxGeometry x="1025" y="270" width="60" height="30" as="geometry" />
        </mxCell>
        <mxCell id="Xpfcy3nXjKeu7boo3VgT-28" value="" style="rounded=1;whiteSpace=wrap;html=1;" vertex="1" parent="1">
          <mxGeometry x="1370" y="260.5" width="110" height="50" as="geometry" />
        </mxCell>
        <mxCell id="Xpfcy3nXjKeu7boo3VgT-29" value="&lt;b&gt;Install&lt;/b&gt;" style="text;html=1;align=center;verticalAlign=middle;whiteSpace=wrap;rounded=0;" vertex="1" parent="1">
          <mxGeometry x="1395" y="273" width="60" height="30" as="geometry" />
        </mxCell>
        <mxCell id="Xpfcy3nXjKeu7boo3VgT-30" value="" style="sketch=0;outlineConnect=0;fontColor=#232F3E;gradientColor=none;fillColor=#232F3D;strokeColor=none;dashed=0;verticalLabelPosition=bottom;verticalAlign=top;align=center;html=1;fontSize=12;fontStyle=0;aspect=fixed;pointerEvents=1;shape=mxgraph.aws4.authenticated_user;" vertex="1" parent="1">
          <mxGeometry x="1210" y="258.5" width="54" height="54" as="geometry" />
        </mxCell>
        <mxCell id="Xpfcy3nXjKeu7boo3VgT-31" value="" style="endArrow=classic;html=1;rounded=0;fontStyle=1;fontSize=23;strokeWidth=3;" edge="1" parent="1">
          <mxGeometry width="50" height="50" relative="1" as="geometry">
            <mxPoint x="1270" y="282.5" as="sourcePoint" />
            <mxPoint x="1350" y="282.5" as="targetPoint" />
          </mxGeometry>
        </mxCell>
        <mxCell id="Xpfcy3nXjKeu7boo3VgT-32" value="" style="rounded=1;whiteSpace=wrap;html=1;" vertex="1" parent="1">
          <mxGeometry x="1600" y="260.5" width="110" height="50" as="geometry" />
        </mxCell>
        <mxCell id="Xpfcy3nXjKeu7boo3VgT-33" value="&lt;b&gt;Build&lt;/b&gt;" style="text;html=1;align=center;verticalAlign=middle;whiteSpace=wrap;rounded=0;" vertex="1" parent="1">
          <mxGeometry x="1625" y="273" width="60" height="30" as="geometry" />
        </mxCell>
        <mxCell id="Xpfcy3nXjKeu7boo3VgT-34" value="" style="endArrow=classic;html=1;rounded=0;fontStyle=1;fontSize=23;strokeWidth=3;" edge="1" parent="1">
          <mxGeometry width="50" height="50" relative="1" as="geometry">
            <mxPoint x="1500" y="282.5" as="sourcePoint" />
            <mxPoint x="1580" y="282.5" as="targetPoint" />
          </mxGeometry>
        </mxCell>
        <mxCell id="Xpfcy3nXjKeu7boo3VgT-35" value="" style="rounded=1;whiteSpace=wrap;html=1;" vertex="1" parent="1">
          <mxGeometry x="1840" y="254.5" width="110" height="50" as="geometry" />
        </mxCell>
        <mxCell id="Xpfcy3nXjKeu7boo3VgT-36" value="" style="endArrow=classic;html=1;rounded=0;fontStyle=1;fontSize=23;strokeWidth=3;" edge="1" parent="1">
          <mxGeometry width="50" height="50" relative="1" as="geometry">
            <mxPoint x="1740" y="282.5" as="sourcePoint" />
            <mxPoint x="1820" y="282.5" as="targetPoint" />
          </mxGeometry>
        </mxCell>
        <mxCell id="Xpfcy3nXjKeu7boo3VgT-37" value="&lt;b&gt;Test&lt;/b&gt;" style="text;html=1;align=center;verticalAlign=middle;whiteSpace=wrap;rounded=0;" vertex="1" parent="1">
          <mxGeometry x="1865" y="266.5" width="60" height="30" as="geometry" />
        </mxCell>
        <mxCell id="Xpfcy3nXjKeu7boo3VgT-40" value="" style="endArrow=classic;html=1;rounded=0;fontStyle=1;fontSize=23;strokeWidth=3;" edge="1" parent="1">
          <mxGeometry width="50" height="50" relative="1" as="geometry">
            <mxPoint x="1120" y="284.83" as="sourcePoint" />
            <mxPoint x="1200" y="284.83" as="targetPoint" />
          </mxGeometry>
        </mxCell>
        <mxCell id="Xpfcy3nXjKeu7boo3VgT-85" style="edgeStyle=orthogonalEdgeStyle;rounded=0;orthogonalLoop=1;jettySize=auto;html=1;exitX=0.5;exitY=1;exitDx=0;exitDy=0;strokeWidth=5;fillColor=#f8cecc;strokeColor=#b85450;" edge="1" parent="1" source="Xpfcy3nXjKeu7boo3VgT-41">
          <mxGeometry relative="1" as="geometry">
            <mxPoint x="1100" y="530" as="targetPoint" />
            <Array as="points">
              <mxPoint x="1895" y="730" />
              <mxPoint x="1101" y="730" />
              <mxPoint x="1101" y="550" />
            </Array>
          </mxGeometry>
        </mxCell>
        <mxCell id="Xpfcy3nXjKeu7boo3VgT-41" value="" style="rounded=1;whiteSpace=wrap;html=1;" vertex="1" parent="1">
          <mxGeometry x="1840" y="559" width="110" height="50" as="geometry" />
        </mxCell>
        <mxCell id="Xpfcy3nXjKeu7boo3VgT-43" value="&lt;b&gt;Release&lt;/b&gt;" style="text;html=1;align=center;verticalAlign=middle;whiteSpace=wrap;rounded=0;" vertex="1" parent="1">
          <mxGeometry x="1865" y="571" width="60" height="30" as="geometry" />
        </mxCell>
        <mxCell id="Xpfcy3nXjKeu7boo3VgT-84" style="edgeStyle=orthogonalEdgeStyle;rounded=0;orthogonalLoop=1;jettySize=auto;html=1;exitX=0.5;exitY=1;exitDx=0;exitDy=0;fillColor=#f8cecc;strokeColor=#b85450;strokeWidth=5;" edge="1" parent="1" source="Xpfcy3nXjKeu7boo3VgT-44">
          <mxGeometry relative="1" as="geometry">
            <mxPoint x="1130" y="530" as="targetPoint" />
            <Array as="points">
              <mxPoint x="1655" y="670" />
              <mxPoint x="1131" y="670" />
              <mxPoint x="1131" y="540" />
            </Array>
          </mxGeometry>
        </mxCell>
        <mxCell id="Xpfcy3nXjKeu7boo3VgT-44" value="" style="rounded=1;whiteSpace=wrap;html=1;" vertex="1" parent="1">
          <mxGeometry x="1600" y="559" width="110" height="50" as="geometry" />
        </mxCell>
        <mxCell id="Xpfcy3nXjKeu7boo3VgT-45" value="" style="endArrow=classic;html=1;rounded=0;fontStyle=1;fontSize=23;strokeWidth=3;" edge="1" parent="1">
          <mxGeometry width="50" height="50" relative="1" as="geometry">
            <mxPoint x="1900" y="350" as="sourcePoint" />
            <mxPoint x="1900" y="510" as="targetPoint" />
          </mxGeometry>
        </mxCell>
        <mxCell id="Xpfcy3nXjKeu7boo3VgT-46" value="&lt;b&gt;Docker Image&lt;/b&gt;" style="text;html=1;align=center;verticalAlign=middle;whiteSpace=wrap;rounded=0;" vertex="1" parent="1">
          <mxGeometry x="1625" y="571" width="60" height="30" as="geometry" />
        </mxCell>
        <mxCell id="Xpfcy3nXjKeu7boo3VgT-50" value="" style="endArrow=classic;html=1;rounded=0;fontStyle=1;fontSize=23;strokeWidth=3;" edge="1" parent="1">
          <mxGeometry width="50" height="50" relative="1" as="geometry">
            <mxPoint x="1587" y="583.29" as="sourcePoint" />
            <mxPoint x="1497" y="583.72" as="targetPoint" />
            <Array as="points" />
          </mxGeometry>
        </mxCell>
        <mxCell id="Xpfcy3nXjKeu7boo3VgT-83" style="edgeStyle=orthogonalEdgeStyle;rounded=0;orthogonalLoop=1;jettySize=auto;html=1;exitX=0.5;exitY=1;exitDx=0;exitDy=0;strokeWidth=5;fillColor=#f8cecc;strokeColor=#b85450;" edge="1" parent="1" source="Xpfcy3nXjKeu7boo3VgT-54">
          <mxGeometry relative="1" as="geometry">
            <mxPoint x="1179.9999999999995" y="530.0000000000002" as="targetPoint" />
          </mxGeometry>
        </mxCell>
        <mxCell id="Xpfcy3nXjKeu7boo3VgT-54" value="" style="rounded=1;whiteSpace=wrap;html=1;" vertex="1" parent="1">
          <mxGeometry x="1377" y="559" width="110" height="50" as="geometry" />
        </mxCell>
        <mxCell id="Xpfcy3nXjKeu7boo3VgT-55" value="&lt;b&gt;Deploy&lt;/b&gt;" style="text;html=1;align=center;verticalAlign=middle;whiteSpace=wrap;rounded=0;" vertex="1" parent="1">
          <mxGeometry x="1402" y="571" width="60" height="30" as="geometry" />
        </mxCell>
        <mxCell id="Xpfcy3nXjKeu7boo3VgT-56" value="" style="endArrow=classic;html=1;rounded=0;fontStyle=1;fontSize=23;strokeWidth=3;" edge="1" parent="1">
          <mxGeometry width="50" height="50" relative="1" as="geometry">
            <mxPoint x="1820" y="585.17" as="sourcePoint" />
            <mxPoint x="1730" y="585.6" as="targetPoint" />
            <Array as="points" />
          </mxGeometry>
        </mxCell>
        <mxCell id="Xpfcy3nXjKeu7boo3VgT-60" value="CI" style="text;strokeColor=none;fillColor=none;html=1;fontSize=24;fontStyle=1;verticalAlign=middle;align=center;" vertex="1" parent="1">
          <mxGeometry x="760" y="201.25" width="100" height="40" as="geometry" />
        </mxCell>
        <mxCell id="Xpfcy3nXjKeu7boo3VgT-61" value="CI" style="text;strokeColor=none;fillColor=none;html=1;fontSize=24;fontStyle=1;verticalAlign=middle;align=center;" vertex="1" parent="1">
          <mxGeometry x="1605" y="201.25" width="100" height="40" as="geometry" />
        </mxCell>
        <mxCell id="Xpfcy3nXjKeu7boo3VgT-62" value="CD" style="text;strokeColor=none;fillColor=none;html=1;fontSize=24;fontStyle=1;verticalAlign=middle;align=center;" vertex="1" parent="1">
          <mxGeometry x="1605" y="519" width="100" height="40" as="geometry" />
        </mxCell>
        <mxCell id="Xpfcy3nXjKeu7boo3VgT-63" value="Mail" style="html=1;whiteSpace=wrap;strokeColor=none;fillColor=#0079D6;labelPosition=center;verticalLabelPosition=middle;verticalAlign=top;align=center;fontSize=12;outlineConnect=0;spacingTop=-6;fontColor=#FFFFFF;sketch=0;shape=mxgraph.sitemap.mail;" vertex="1" parent="1">
          <mxGeometry x="1080" y="449" width="120" height="70" as="geometry" />
        </mxCell>
        <mxCell id="Xpfcy3nXjKeu7boo3VgT-76" style="edgeStyle=orthogonalEdgeStyle;rounded=0;orthogonalLoop=1;jettySize=auto;html=1;entryX=0;entryY=0.75;entryDx=0;entryDy=0;entryPerimeter=0;fillColor=#f8cecc;strokeColor=#b85450;strokeWidth=5;" edge="1" parent="1" target="Xpfcy3nXjKeu7boo3VgT-63">
          <mxGeometry relative="1" as="geometry">
            <mxPoint x="580" y="310" as="sourcePoint" />
            <Array as="points">
              <mxPoint x="585" y="502" />
            </Array>
          </mxGeometry>
        </mxCell>
        <mxCell id="Xpfcy3nXjKeu7boo3VgT-77" style="edgeStyle=orthogonalEdgeStyle;rounded=0;orthogonalLoop=1;jettySize=auto;html=1;entryX=0;entryY=0.25;entryDx=0;entryDy=0;entryPerimeter=0;strokeWidth=5;fillColor=#f8cecc;strokeColor=#b85450;" edge="1" parent="1" target="Xpfcy3nXjKeu7boo3VgT-63">
          <mxGeometry relative="1" as="geometry">
            <mxPoint x="815" y="310" as="sourcePoint" />
            <Array as="points">
              <mxPoint x="820" y="311" />
              <mxPoint x="820" y="467" />
            </Array>
          </mxGeometry>
        </mxCell>
        <mxCell id="Xpfcy3nXjKeu7boo3VgT-78" style="edgeStyle=orthogonalEdgeStyle;rounded=0;orthogonalLoop=1;jettySize=auto;html=1;entryX=0.5;entryY=0;entryDx=0;entryDy=0;entryPerimeter=0;strokeWidth=5;fillColor=#f8cecc;strokeColor=#b85450;" edge="1" parent="1" target="Xpfcy3nXjKeu7boo3VgT-63">
          <mxGeometry relative="1" as="geometry">
            <mxPoint x="1055" y="310" as="sourcePoint" />
            <Array as="points">
              <mxPoint x="1060" y="311" />
              <mxPoint x="1060" y="400" />
              <mxPoint x="1140" y="400" />
            </Array>
          </mxGeometry>
        </mxCell>
        <mxCell id="Xpfcy3nXjKeu7boo3VgT-79" style="edgeStyle=orthogonalEdgeStyle;rounded=0;orthogonalLoop=1;jettySize=auto;html=1;strokeWidth=5;fillColor=#f8cecc;strokeColor=#b85450;entryX=0.75;entryY=0.014;entryDx=0;entryDy=0;entryPerimeter=0;" edge="1" parent="1" target="Xpfcy3nXjKeu7boo3VgT-63">
          <mxGeometry relative="1" as="geometry">
            <mxPoint x="1425" y="320" as="sourcePoint" />
            <mxPoint x="1180" y="440" as="targetPoint" />
            <Array as="points">
              <mxPoint x="1425" y="400" />
              <mxPoint x="1170" y="400" />
            </Array>
          </mxGeometry>
        </mxCell>
        <mxCell id="Xpfcy3nXjKeu7boo3VgT-81" style="edgeStyle=orthogonalEdgeStyle;rounded=0;orthogonalLoop=1;jettySize=auto;html=1;exitX=0.5;exitY=1;exitDx=0;exitDy=0;entryX=1;entryY=0.25;entryDx=0;entryDy=0;entryPerimeter=0;strokeWidth=5;fillColor=#f8cecc;strokeColor=#b85450;" edge="1" parent="1" source="Xpfcy3nXjKeu7boo3VgT-32" target="Xpfcy3nXjKeu7boo3VgT-63">
          <mxGeometry relative="1" as="geometry" />
        </mxCell>
        <mxCell id="Xpfcy3nXjKeu7boo3VgT-82" style="edgeStyle=orthogonalEdgeStyle;rounded=0;orthogonalLoop=1;jettySize=auto;html=1;exitX=0.31;exitY=1.077;exitDx=0;exitDy=0;entryX=1;entryY=0.75;entryDx=0;entryDy=0;entryPerimeter=0;strokeWidth=5;fillColor=#f8cecc;strokeColor=#b85450;exitPerimeter=0;" edge="1" parent="1" source="Xpfcy3nXjKeu7boo3VgT-35" target="Xpfcy3nXjKeu7boo3VgT-63">
          <mxGeometry relative="1" as="geometry">
            <Array as="points">
              <mxPoint x="1874" y="500" />
              <mxPoint x="1520" y="500" />
              <mxPoint x="1520" y="502" />
            </Array>
          </mxGeometry>
        </mxCell>
        <mxCell id="Xpfcy3nXjKeu7boo3VgT-86" value="&lt;div&gt;&lt;br&gt;&lt;/div&gt;&lt;div&gt;&lt;span style=&quot;color: rgb(32, 33, 36); font-family: arial, sans-serif; font-size: 28px; font-weight: 400; text-align: left; white-space: pre-wrap; background-color: rgb(248, 249, 250);&quot;&gt;fail&lt;/span&gt;&lt;br&gt;&lt;/div&gt;" style="text;strokeColor=none;fillColor=none;html=1;fontSize=24;fontStyle=1;verticalAlign=middle;align=center;" vertex="1" parent="1">
          <mxGeometry x="610" y="460" width="100" height="40" as="geometry" />
        </mxCell>
        <mxCell id="Xpfcy3nXjKeu7boo3VgT-87" value="&lt;div&gt;&lt;br&gt;&lt;/div&gt;&lt;div&gt;&lt;span style=&quot;color: rgb(32, 33, 36); font-family: arial, sans-serif; font-size: 28px; font-weight: 400; text-align: left; white-space: pre-wrap; background-color: rgb(248, 249, 250);&quot;&gt;fail&lt;/span&gt;&lt;br&gt;&lt;/div&gt;" style="text;strokeColor=none;fillColor=none;html=1;fontSize=24;fontStyle=1;verticalAlign=middle;align=center;" vertex="1" parent="1">
          <mxGeometry x="820" y="430" width="100" height="40" as="geometry" />
        </mxCell>
        <mxCell id="Xpfcy3nXjKeu7boo3VgT-88" value="&lt;div&gt;&lt;br&gt;&lt;/div&gt;&lt;div&gt;&lt;span style=&quot;color: rgb(32, 33, 36); font-family: arial, sans-serif; font-size: 28px; font-weight: 400; text-align: left; white-space: pre-wrap; background-color: rgb(248, 249, 250);&quot;&gt;fail&lt;/span&gt;&lt;br&gt;&lt;/div&gt;" style="text;strokeColor=none;fillColor=none;html=1;fontSize=24;fontStyle=1;verticalAlign=middle;align=center;" vertex="1" parent="1">
          <mxGeometry x="1050" y="360" width="100" height="40" as="geometry" />
        </mxCell>
        <mxCell id="Xpfcy3nXjKeu7boo3VgT-89" value="&lt;div&gt;&lt;br&gt;&lt;/div&gt;&lt;div&gt;&lt;span style=&quot;color: rgb(32, 33, 36); font-family: arial, sans-serif; font-size: 28px; font-weight: 400; text-align: left; white-space: pre-wrap; background-color: rgb(248, 249, 250);&quot;&gt;fail&lt;/span&gt;&lt;br&gt;&lt;/div&gt;" style="text;strokeColor=none;fillColor=none;html=1;fontSize=24;fontStyle=1;verticalAlign=middle;align=center;" vertex="1" parent="1">
          <mxGeometry x="1241" y="360" width="100" height="40" as="geometry" />
        </mxCell>
        <mxCell id="Xpfcy3nXjKeu7boo3VgT-90" value="&lt;div&gt;&lt;br&gt;&lt;/div&gt;&lt;div&gt;&lt;span style=&quot;color: rgb(32, 33, 36); font-family: arial, sans-serif; font-size: 28px; font-weight: 400; text-align: left; white-space: pre-wrap; background-color: rgb(248, 249, 250);&quot;&gt;failure&lt;/span&gt;&lt;br&gt;&lt;/div&gt;" style="text;strokeColor=none;fillColor=none;html=1;fontSize=24;fontStyle=1;verticalAlign=middle;align=center;" vertex="1" parent="1">
          <mxGeometry x="1387" y="430" width="100" height="40" as="geometry" />
        </mxCell>
        <mxCell id="Xpfcy3nXjKeu7boo3VgT-91" value="&lt;div&gt;&lt;br&gt;&lt;/div&gt;&lt;div&gt;&lt;span style=&quot;color: rgb(32, 33, 36); font-family: arial, sans-serif; font-size: 28px; font-weight: 400; text-align: left; white-space: pre-wrap; background-color: rgb(248, 249, 250);&quot;&gt;failure&lt;/span&gt;&lt;br&gt;&lt;/div&gt;" style="text;strokeColor=none;fillColor=none;html=1;fontSize=24;fontStyle=1;verticalAlign=middle;align=center;" vertex="1" parent="1">
          <mxGeometry x="1387" y="464" width="100" height="40" as="geometry" />
        </mxCell>
        <mxCell id="Xpfcy3nXjKeu7boo3VgT-92" value="&lt;div&gt;&lt;br&gt;&lt;/div&gt;&lt;div&gt;&lt;span style=&quot;color: rgb(32, 33, 36); font-family: arial, sans-serif; font-size: 28px; font-weight: 400; text-align: left; white-space: pre-wrap; background-color: rgb(248, 249, 250);&quot;&gt;fail&lt;/span&gt;&lt;br&gt;&lt;/div&gt;" style="text;strokeColor=none;fillColor=none;html=1;fontSize=24;fontStyle=1;verticalAlign=middle;align=center;" vertex="1" parent="1">
          <mxGeometry x="1230" y="640" width="100" height="40" as="geometry" />
        </mxCell>
        <mxCell id="Xpfcy3nXjKeu7boo3VgT-95" value="&lt;div&gt;&lt;br&gt;&lt;/div&gt;&lt;div&gt;&lt;span style=&quot;color: rgb(32, 33, 36); font-family: arial, sans-serif; font-size: 28px; font-weight: 400; text-align: left; white-space: pre-wrap; background-color: rgb(248, 249, 250);&quot;&gt;fail&lt;/span&gt;&lt;br&gt;&lt;/div&gt;" style="text;strokeColor=none;fillColor=none;html=1;fontSize=24;fontStyle=1;verticalAlign=middle;align=center;" vertex="1" parent="1">
          <mxGeometry x="1230" y="584" width="100" height="40" as="geometry" />
        </mxCell>
        <mxCell id="Xpfcy3nXjKeu7boo3VgT-96" value="&lt;div&gt;&lt;br&gt;&lt;/div&gt;&lt;div&gt;&lt;span style=&quot;color: rgb(32, 33, 36); font-family: arial, sans-serif; font-size: 28px; font-weight: 400; text-align: left; white-space: pre-wrap; background-color: rgb(248, 249, 250);&quot;&gt;fail&lt;/span&gt;&lt;br&gt;&lt;/div&gt;" style="text;strokeColor=none;fillColor=none;html=1;fontSize=24;fontStyle=1;verticalAlign=middle;align=center;" vertex="1" parent="1">
          <mxGeometry x="1230" y="690" width="100" height="40" as="geometry" />
        </mxCell>
        <mxCell id="Xpfcy3nXjKeu7boo3VgT-99" value="manually" style="text;strokeColor=none;fillColor=none;html=1;fontSize=24;fontStyle=1;verticalAlign=middle;align=center;" vertex="1" parent="1">
          <mxGeometry x="347" y="315" width="100" height="40" as="geometry" />
        </mxCell>
        <mxCell id="Xpfcy3nXjKeu7boo3VgT-100" value="manually" style="text;strokeColor=none;fillColor=none;html=1;fontSize=24;fontStyle=1;verticalAlign=middle;align=center;" vertex="1" parent="1">
          <mxGeometry x="1180" y="312.5" width="100" height="40" as="geometry" />
        </mxCell>
      </root>
    </mxGraphModel>
  </diagram>
</mxfile>
